<svg xmlns="http://www.w3.org/2000/svg" viewBox="0 0 56 56">
    <defs>
        <style>
            .cls-1{fill:#dfdfdf}
        </style>
    </defs>
    <g id="Group_54" data-name="Group 54" transform="translate(-960 -721)">
        <g id="Agilenix_favicon_darkblue-blue" transform="translate(960 721)">
            <path id="Path_31" d="M.417 0H21.93v5.115H5.2v45.808h17V56H0V0z" class="cls-1" data-name="Path 31"/>
            <path id="Path_34" d="M110.878 0H89.366v5.115H106.1v45.808h-17V56h22.2V0z" class="cls-1" data-name="Path 34" transform="translate(-55.295)"/>
        </g>
        <g id="web_development" data-name="web development" transform="translate(968 729)">
            <path id="Path_127" d="M39.167 0H.833A.787.787 0 0 0 0 .833v38.334A.787.787 0 0 0 .833 40h38.334a.787.787 0 0 0 .833-.833V.833A.787.787 0 0 0 39.167 0zm-.833 38.333H1.667v-30h36.666zm0-31.667H1.667v-5h36.666z" class="cls-1" data-name="Path 127"/>
            <path id="Path_128" d="M41.167 4h-1.334a.787.787 0 0 0-.833.833.787.787 0 0 0 .833.833h1.333A.787.787 0 0 0 42 4.833.787.787 0 0 0 41.167 4z" class="cls-1" data-name="Path 128" transform="translate(-6.5 -.667)"/>
            <path id="Path_129" d="M35.267 4h-1.334a.787.787 0 0 0-.833.833.787.787 0 0 0 .833.833h1.333a.787.787 0 0 0 .833-.833.787.787 0 0 0-.832-.833z" class="cls-1" data-name="Path 129" transform="translate(-5.517 -.667)"/>
            <path id="Path_130" d="M29.367 4h-1.334a.787.787 0 0 0-.833.833.787.787 0 0 0 .833.833h1.333a.787.787 0 0 0 .833-.833.835.835 0 0 0-.832-.833z" class="cls-1" data-name="Path 130" transform="translate(-4.533 -.667)"/>
            <path id="Path_131" d="M20.4 4H6.233a.787.787 0 0 0-.833.833.787.787 0 0 0 .833.833H20.4a.787.787 0 0 0 .833-.833A.835.835 0 0 0 20.4 4z" class="cls-1" data-name="Path 131" transform="translate(-.9 -.667)"/>
            <path id="Path_132" d="M14.967 28.933A5.167 5.167 0 1 0 9.8 23.767a5.193 5.193 0 0 0 5.167 5.166zm0-8.667a3.5 3.5 0 1 1-3.5 3.5 3.468 3.468 0 0 1 3.5-3.499z" class="cls-1" data-name="Path 132" transform="translate(-1.633 -3.1)"/>
            <path id="Path_133" d="M37.683 16.367a.715.715 0 0 0-.583-.5.672.672 0 0 0-.75.25L33.267 19.2l-2.25-2.25 3-3a1.163 1.163 0 0 0 .25-.75.881.881 0 0 0-.5-.583 6.679 6.679 0 0 0-6.5 1.333 6.426 6.426 0 0 0-1.833 6.333l-.75.667a.877.877 0 0 0-.667-.833l-2.417-.584c0-.083-.083-.167-.083-.25l1.333-2.167a.873.873 0 0 0-.083-1l-2.333-2.333a.759.759 0 0 0-1-.083l-2.25 1.25c-.083 0-.167-.083-.25-.083l-.583-2.5a.812.812 0 0 0-.833-.667h-3.335a.812.812 0 0 0-.833.667l-.583 2.417c-.083 0-.167.083-.25.083l-2.083-1.25a.873.873 0 0 0-1 .083l-2.417 2.417a.759.759 0 0 0-.083 1l1.333 2.167c0 .083-.083.167-.083.25l-2.417.583a.812.812 0 0 0-.667.833v3.333a.812.812 0 0 0 .667.833l2.417.583c0 .083.083.167.083.25l-1.334 2.168a.873.873 0 0 0 .083 1L7.35 31.45a.759.759 0 0 0 1 .083l2.167-1.333c.083 0 .167.083.25.083l.583 2.5a.812.812 0 0 0 .833.667 3.184 3.184 0 0 0 4.583 4.417L29.85 24.783a5.373 5.373 0 0 0 1.667.25 6.043 6.043 0 0 0 4.5-1.917 6.582 6.582 0 0 0 1.666-6.749zM12.35 29.533a.823.823 0 0 0-.583-.583 6.33 6.33 0 0 1-.917-.333.973.973 0 0 0-.833 0l-2 1.25L6.6 28.45l1.25-2a.757.757 0 0 0 0-.833 2.985 2.985 0 0 1-.333-.917 1.007 1.007 0 0 0-.583-.583l-2.25-.5v-2l2.25-.5a.823.823 0 0 0 .583-.583 4.466 4.466 0 0 1 .417-.917.973.973 0 0 0 0-.833l-1.25-2L8.1 15.367l2 1.25a.757.757 0 0 0 .833 0 9.777 9.777 0 0 1 .917-.417 1.007 1.007 0 0 0 .583-.583l.5-2.25h2l.5 2.25a.823.823 0 0 0 .583.583 4.466 4.466 0 0 1 .917.417.973.973 0 0 0 .833 0l2-1.25 1.417 1.417-1.25 2a.956.956 0 0 0-.083.833 9.776 9.776 0 0 1 .417.917 1.007 1.007 0 0 0 .583.583l2.25.5v1l-9.167 9.167h-1zm22.583-7.583a4.675 4.675 0 0 1-4.917 1.083.911.911 0 0 0-.833.167l-13.5 13.5a1.591 1.591 0 0 1-2.25-2.25l1.25-1.25L26.85 21.033a.663.663 0 0 0 .167-.833 4.665 4.665 0 0 1 1.25-5.083 4.531 4.531 0 0 1 3.25-1.25h.167l-2.5 2.5a.806.806 0 0 0 0 1.167L32.6 20.95a.806.806 0 0 0 1.167 0l2.5-2.5a4.182 4.182 0 0 1-1.334 3.5z" class="cls-1" data-name="Path 133" transform="translate(-.517 -1.95)"/>
        </g>
    </g>
</svg>
