<svg xmlns="http://www.w3.org/2000/svg" viewBox="0 0 56 56">
    <defs>
        <style>
            .cls-1{fill:#dfdfdf}
        </style>
    </defs>
    <g id="Group_52" data-name="Group 52" transform="translate(-240 -712)">
        <g id="strategy" transform="translate(248.186 719.971)">
            <path id="Path_117" d="M31.779 25.748l-.656 2.621a1.24 1.24 0 0 0 2.407.6l1.24-4.955a1.257 1.257 0 0 0-.649-1.409l-4.961-2.477a1.239 1.239 0 1 0-1.109 2.216l2.487 1.241C21.17 27.719 15.46 35.111 14.061 44.857a4.965 4.965 0 1 0 2.49.181c1.349-8.854 6.621-15.561 15.228-19.29zM17.442 49.727a2.481 2.481 0 1 1-2.481-2.477 2.482 2.482 0 0 1 2.481 2.477z" class="cls-1" data-name="Path 117" transform="translate(-10 -15.045)"/>
            <path id="Path_118" d="M49.56 70.362a1.241 1.241 0 0 0-1.754 0L44.961 73.2l-2.844-2.84a1.239 1.239 0 0 0-1.754 1.751l2.844 2.84-2.844 2.84a1.239 1.239 0 0 0 1.754 1.752l2.844-2.84 2.844 2.84a1.239 1.239 0 1 0 1.754-1.751l-2.844-2.84 2.844-2.84a1.238 1.238 0 0 0 .001-1.75z" class="cls-1" data-name="Path 118" transform="translate(-25.116 -40.272)"/>
            <path id="Path_119" d="M79.56 40.362a1.241 1.241 0 0 0-1.754 0L74.961 43.2l-2.844-2.84a1.239 1.239 0 1 0-1.754 1.751l2.844 2.84-2.844 2.84a1.239 1.239 0 0 0 1.754 1.752l2.844-2.84 2.844 2.84a1.239 1.239 0 1 0 1.754-1.751l-2.844-2.84 2.844-2.84a1.238 1.238 0 0 0 .001-1.75z" class="cls-1" data-name="Path 119" transform="translate(-40.232 -25.136)"/>
            <path id="Path_120" d="M10.363 19.547a1.242 1.242 0 0 0 1.754 0l2.844-2.84 2.844 2.84A1.239 1.239 0 1 0 19.56 17.8l-2.844-2.84 2.844-2.84a1.239 1.239 0 0 0-1.754-1.751L14.961 13.2l-2.844-2.84a1.239 1.239 0 1 0-1.754 1.751l2.844 2.84-2.844 2.84a1.238 1.238 0 0 0 0 1.756z" class="cls-1" data-name="Path 120" transform="translate(-10 -10)"/>
            <path id="Path_121" d="M77.786 10.363l-1.462 1.46-3.863 3.858-2.318-2.315-.526-.526a1.239 1.239 0 1 0-1.754 1.751l3.721 3.716a1.241 1.241 0 0 0 1.754 0l6.2-6.193a1.24 1.24 0 0 0-1.754-1.752z" class="cls-1" data-name="Path 121" transform="translate(-38.972 -10)"/>
        </g>
        <g id="Agilenix_favicon_darkblue-blue" transform="translate(240 712)">
            <path id="Path_31" d="M.417 0H21.93v5.115H5.2v45.808h17V56H0V0z" class="cls-1" data-name="Path 31"/>
            <path id="Path_34" d="M110.878 0H89.366v5.115H106.1v45.808h-17V56h22.2V0z" class="cls-1" data-name="Path 34" transform="translate(-55.295)"/>
        </g>
    </g>
</svg>
