<svg xmlns="http://www.w3.org/2000/svg" viewBox="0 0 56 56">
    <defs>
        <style>
            .cls-1{fill:#dfdfdf}
        </style>
    </defs>
    <g id="Group_53" data-name="Group 53" transform="translate(-624 -720)">
        <g id="Agilenix_favicon_darkblue-blue" transform="translate(624 720)">
            <path id="Path_31" d="M.417 0H21.93v5.115H5.2v45.808h17V56H0V0z" class="cls-1" data-name="Path 31"/>
            <path id="Path_34" d="M110.878 0H89.366v5.115H106.1v45.808h-17V56h22.2V0z" class="cls-1" data-name="Path 34" transform="translate(-55.295)"/>
        </g>
        <g id="Development2" transform="translate(632 728)">
            <path id="Path_122" d="M21.667 10a11.667 11.667 0 1 0 11.666 11.667A11.7 11.7 0 0 0 21.667 10zm0 21.667a10 10 0 1 1 10-10 10.029 10.029 0 0 1-10 10z" class="cls-1" data-name="Path 122" transform="translate(-1.667 -1.667)"/>
            <path id="Path_123" d="M39.167 16.417h-3.25a16.606 16.606 0 0 0-2.167-5.167L36 9a.806.806 0 0 0 0-1.167L32.167 4A.806.806 0 0 0 31 4l-2.25 2.25a16.606 16.606 0 0 0-5.167-2.167V.833A.787.787 0 0 0 22.75 0h-5.5a.787.787 0 0 0-.833.833v3.25A16.606 16.606 0 0 0 11.25 6.25L9 4a.806.806 0 0 0-1.167 0L3.917 7.833a.806.806 0 0 0 0 1.167l2.25 2.25A16.606 16.606 0 0 0 4 16.417H.833A.787.787 0 0 0 0 17.25v5.5a.787.787 0 0 0 .833.833h3.25A16.606 16.606 0 0 0 6.25 28.75L4 31a.806.806 0 0 0 0 1.167L7.833 36A.806.806 0 0 0 9 36l2.25-2.25a16.606 16.606 0 0 0 5.167 2.167v3.25a.787.787 0 0 0 .833.833h5.5a.787.787 0 0 0 .833-.833v-3.25a16.606 16.606 0 0 0 5.167-2.167L31 36a.806.806 0 0 0 1.167 0L36 32.167A.806.806 0 0 0 36 31l-2.25-2.25a16.606 16.606 0 0 0 2.167-5.167h3.25A.787.787 0 0 0 40 22.75v-5.5a.835.835 0 0 0-.833-.833zm-.833 5.5H35.25a.812.812 0 0 0-.833.667A13.072 13.072 0 0 1 32 28.333a.882.882 0 0 0 .083 1.083l2.167 2.167-2.667 2.667-2.167-2.167A.873.873 0 0 0 28.333 32a14.619 14.619 0 0 1-5.75 2.417.812.812 0 0 0-.667.833v3.083h-3.833V35.25a.812.812 0 0 0-.667-.833A13.072 13.072 0 0 1 11.667 32a.882.882 0 0 0-1.083.083L8.417 34.25 5.75 31.583l2.167-2.167A.873.873 0 0 0 8 28.333a14.619 14.619 0 0 1-2.417-5.75.812.812 0 0 0-.833-.667H1.667v-3.833H4.75a.812.812 0 0 0 .833-.667A13.072 13.072 0 0 1 8 11.667a.882.882 0 0 0-.083-1.083L5.75 8.417 8.417 5.75l2.167 2.167A.873.873 0 0 0 11.667 8a14.619 14.619 0 0 1 5.75-2.417.812.812 0 0 0 .667-.833V1.667h3.833V4.75a.812.812 0 0 0 .667.833A13.072 13.072 0 0 1 28.333 8a.882.882 0 0 0 1.083-.083l2.167-2.167 2.667 2.667-2.167 2.167A.873.873 0 0 0 32 11.667a14.619 14.619 0 0 1 2.417 5.75.812.812 0 0 0 .833.667h3.083z" class="cls-1" data-name="Path 123"/>
            <path id="Path_124" d="M27.958 19.738a.805.805 0 0 0 .083 1.167l2.833 2.333-2.833 2.333a.81.81 0 0 0-.083 1.167 1.029 1.029 0 0 0 .667.333.893.893 0 0 0 .5-.167l3.583-3a1.029 1.029 0 0 0 .333-.667.758.758 0 0 0-.333-.667l-3.583-3a.881.881 0 0 0-1.167.168z" class="cls-1" data-name="Path 124" transform="translate(-4.624 -3.238)"/>
            <path id="Path_125" d="M19 19.741a.81.81 0 0 0-1.167-.083l-3.583 3a.649.649 0 0 0-.25.583.758.758 0 0 0 .333.667l3.583 3a.612.612 0 0 0 .5.167.758.758 0 0 0 .667-.333.805.805 0 0 0-.083-1.168l-2.833-2.333L19 20.908a.887.887 0 0 0 0-1.167z" class="cls-1" data-name="Path 125" transform="translate(-2.333 -3.241)"/>
            <path id="Path_126" d="M25.577 19.577a.843.843 0 0 0-1.167.333l-3.333 5.917a.843.843 0 0 0 .333 1.167.751.751 0 0 0 .417.083.994.994 0 0 0 .75-.417l3.333-5.917a.8.8 0 0 0-.333-1.166z" class="cls-1" data-name="Path 126" transform="translate(-3.493 -3.243)"/>
        </g>
    </g>
</svg>
