<svg xmlns="http://www.w3.org/2000/svg" viewBox="0 0 211.661 46.713">
    <defs>
        <style>
            .cls-1,.cls-3{fill:#fff}.cls-2{fill:#189af1}.cls-3{fill-rule:evenodd}
        </style>
    </defs>
    <g id="Agilenix_logo_darkblue-blue">
        <path id="Path_3" d="M.328 0h17.931v4.258H4.34V42.5h14.165v4.217H0V0z" class="cls-1" data-name="Path 3"/>
        <path id="Path_4" d="M490.036 0H472.1v4.258h13.92V42.5H471.9v4.217h18.464V0z" class="cls-1" data-name="Path 4" transform="translate(-278.703)"/>
        <path id="Path_5" d="M251.9 24.461l6.8 6.632 6.673-6.632h5.486l-9.5 9.375 11.013 10.972h-5.527l-8.188-8.188-8.27 8.188h-5.363l10.931-10.972-9.5-9.375zM117.7 37.152v-4.831a11.328 11.328 0 0 1 .123-1.719 6.7 6.7 0 0 1 .409-1.556 5.276 5.276 0 0 1 .7-1.351 6.387 6.387 0 0 1 .942-1.146 5.272 5.272 0 0 1 1.228-.9 12.274 12.274 0 0 1 1.474-.655 11.107 11.107 0 0 1 1.679-.368 14.71 14.71 0 0 1 1.924-.123H136v3.726h-8.557c-.532 0-1.064.041-1.515.082a9.588 9.588 0 0 0-1.228.2 5.054 5.054 0 0 0-.942.328 5.221 5.221 0 0 0-.7.409 2.155 2.155 0 0 0-.491.573 2.276 2.276 0 0 0-.368.7 3.253 3.253 0 0 0-.246.9 8.72 8.72 0 0 0-.082 1.105v4.135a8.72 8.72 0 0 0 .082 1.105 3.541 3.541 0 0 0 .246.942 4.266 4.266 0 0 0 .409.737 3.537 3.537 0 0 0 .532.573 3.212 3.212 0 0 0 .737.45 6.364 6.364 0 0 0 .942.328 8.911 8.911 0 0 0 1.187.2 14.3 14.3 0 0 0 1.433.082h6.3a12.4 12.4 0 0 0 1.279-.078 4.486 4.486 0 0 0 1.064-.246 2.73 2.73 0 0 0 .86-.368 3.124 3.124 0 0 0 .7-.532 2.672 2.672 0 0 0 .532-.655 6.619 6.619 0 0 0 .409-.737 3.119 3.119 0 0 0 .246-.819 6.788 6.788 0 0 0 .082-.983v-12.2h4.135v21.617a7.345 7.345 0 0 1-.491 2.784 5.975 5.975 0 0 1-1.515 2.129 7.418 7.418 0 0 1-2.825 1.474 13.921 13.921 0 0 1-3.93.491h-7.656c-.573 0-1.105-.041-1.638-.082a9.011 9.011 0 0 1-1.515-.287 6.58 6.58 0 0 1-1.351-.491 11.029 11.029 0 0 1-1.187-.655 7.019 7.019 0 0 1-.983-.86 5.883 5.883 0 0 1-.737-1.023 5.561 5.561 0 0 1-.45-1.146 6.33 6.33 0 0 1-.164-1.269V46.4h4.463v.737a1.134 1.134 0 0 0 .041.368c.041.123.082.2.123.328a1.1 1.1 0 0 0 .287.328 1.6 1.6 0 0 0 .409.328 2.206 2.206 0 0 0 .532.287 3.069 3.069 0 0 0 .655.2 4.911 4.911 0 0 0 .819.123 7.255 7.255 0 0 0 .983.041h7.246c.409 0 .819-.041 1.146-.041a5.909 5.909 0 0 0 .983-.2 4.818 4.818 0 0 0 .819-.287c.246-.123.45-.246.655-.368a2.674 2.674 0 0 0 .491-.45l.368-.491a2.5 2.5 0 0 0 .2-.491 2.394 2.394 0 0 0 .082-.532v-2.659c-.123.082-.287.164-.409.246a6.531 6.531 0 0 1-.942.409 8.892 8.892 0 0 1-.983.287 9.559 9.559 0 0 1-1.064.164 10.726 10.726 0 0 1-1.146.041h-7.942a12.836 12.836 0 0 1-3.726-.491 7.934 7.934 0 0 1-2.743-1.433 6.653 6.653 0 0 1-1.719-2.456 8.5 8.5 0 0 1-.532-3.234zm31.115 6.96V24.461h4.217V44.89h-4.217zm10.071 0V16.6h4.214v28.249h-4.217zm27.962.778H177.6a12.932 12.932 0 0 1-3.767-.491 7.236 7.236 0 0 1-2.784-1.474 6.355 6.355 0 0 1-1.719-2.5 9.686 9.686 0 0 1-.573-3.4v-4.95a8.592 8.592 0 0 1 .123-1.474 5.536 5.536 0 0 1 .45-1.392 7.652 7.652 0 0 1 .7-1.269 6.641 6.641 0 0 1 1.023-1.146 8.6 8.6 0 0 1 1.347-1.064 9.076 9.076 0 0 1 1.556-.737 7.569 7.569 0 0 1 1.719-.45 9.483 9.483 0 0 1 1.883-.164h7.983a15.347 15.347 0 0 1 1.965.123 12.247 12.247 0 0 1 1.76.409 8.967 8.967 0 0 1 1.556.7 6.446 6.446 0 0 1 1.31.983 7.829 7.829 0 0 1 1.719 2.334 7.307 7.307 0 0 1 .573 2.866v3.766h-20.349v.04h-1.024v1.1a6.645 6.645 0 0 0 .328 2.129 3.288 3.288 0 0 0 .9 1.392 4.971 4.971 0 0 0 .573.409 5.467 5.467 0 0 0 .737.287 5.808 5.808 0 0 0 .9.2 8.565 8.565 0 0 0 1.064.041h9.007a6.722 6.722 0 0 0 1.679-.2 2.829 2.829 0 0 0 1.105-.573 1.761 1.761 0 0 0 .368-.409.976.976 0 0 0 .246-.45 2.307 2.307 0 0 0 .164-.491 2.7 2.7 0 0 0 .041-.573v-.287h4.217v.287a6.006 6.006 0 0 1-.409 2.293 4.71 4.71 0 0 1-.491 1.024 5.08 5.08 0 0 1-.7.942 8.569 8.569 0 0 1-1.146.983 7.37 7.37 0 0 1-1.392.7 6.7 6.7 0 0 1-1.556.409c-.614.041-1.187.082-1.842.082zm3.234-13.1a4.15 4.15 0 0 0-1.105-2.5 2.32 2.32 0 0 0-.614-.491 2.078 2.078 0 0 0-.737-.368 5.787 5.787 0 0 0-.9-.246 7.409 7.409 0 0 0-1.026-.085h-8.679a6.132 6.132 0 0 0-.9.082 5.986 5.986 0 0 0-.819.2 2.276 2.276 0 0 0-.7.368 6.447 6.447 0 0 0-.614.491 3.227 3.227 0 0 0-.491.614l-.368.737a3.46 3.46 0 0 0-.2.7 1.393 1.393 0 0 0-.041.409h17.195zm36.478-15.067h4.258v28.126H226.6q-.061-14.063-.041-28.126zm-26.57 0h7.21l16.826 19.651V42.8l-19.819-22.515v24.564h-4.217zm36.4 7.7h4.21v20.426h-4.217z" class="cls-2" data-name="Path 5" transform="translate(-69.513 -9.804)"/>
        <path id="Path_6" d="M63.979 35.8l10.727 20.429H58.985V52.34h8.393l-5.446-10.522-7.614 14.411-5.118-.041L59.926 35.8z" class="cls-3" data-name="Path 6" transform="translate(-29.057 -21.143)"/>
        <path id="Path_7" d="M26.2 44.89c4.831-9.334 10.112-18.914 14.943-28.29h5.322c-4.749 9.457-10.03 18.914-14.865 28.29z" class="cls-2" data-name="Path 7" transform="translate(-15.474 -9.804)"/>
    </g>
</svg>
