<svg xmlns="http://www.w3.org/2000/svg" viewBox="0 0 211.109 46.637">
    <defs>
        <style>
            .cls-1,.cls-3{fill:#3d577c}.cls-2{fill:#fff}.cls-3{fill-rule:evenodd}
        </style>
    </defs>
    <g id="Agilenix_logo_blue-white">
        <path id="Path_17" d="M.355 0h17.91v4.256H4.345v38.125h14.1v4.256H0V0z" class="cls-1" data-name="Path 17"/>
        <path id="Path_18" d="M235.387 0h-17.821v4.256h13.92v38.125H217.3v4.256h18.442V0z" class="cls-1" data-name="Path 18" transform="translate(-24.633)"/>
        <path id="Path_19" d="M188.083 15.491l6.827 6.65 6.65-6.65h5.5l-9.49 9.309 10.994 11h-5.586l-8.157-8.157-8.246 8.157h-5.32l10.906-10.91-9.576-9.4zM54.2 28.17v-4.788c0-.621.089-1.153.089-1.773a7.489 7.489 0 0 1 .443-1.507 4.7 4.7 0 0 1 .709-1.33 6.1 6.1 0 0 1 .975-1.153 6.294 6.294 0 0 1 1.241-.887 7.67 7.67 0 0 1 1.507-.621 9.417 9.417 0 0 1 1.685-.355 13.728 13.728 0 0 1 1.951-.089h9.842v3.724h-8.6a8.112 8.112 0 0 0-1.507.089 5.233 5.233 0 0 0-1.241.177 2.655 2.655 0 0 0-.887.355 1.931 1.931 0 0 0-.709.443 2.351 2.351 0 0 0-.443.532 2.655 2.655 0 0 0-.355.709c-.089.266-.177.621-.266.887-.177.177-.177.532-.177.975v4.079a3.654 3.654 0 0 0 .089 1.064c.089.355.177.621.266.887a1.931 1.931 0 0 0 .443.709 3.857 3.857 0 0 0 .532.621 4.95 4.95 0 0 0 .709.443 3.706 3.706 0 0 0 .887.355 5.233 5.233 0 0 0 1.241.177 7.166 7.166 0 0 0 1.419.089h6.3a5.452 5.452 0 0 0 1.241-.089l1.064-.266a9.2 9.2 0 0 0 .887-.355c.266-.177.443-.355.709-.532.177-.177.355-.443.532-.621.177-.266.266-.443.443-.709l.266-.8a3.324 3.324 0 0 0 .089-.975V15.491h4.167v21.545a6.61 6.61 0 0 1-.532 2.749 7.153 7.153 0 0 1-1.509 2.128 6.584 6.584 0 0 1-2.837 1.419 13.122 13.122 0 0 1-3.9.443h-7.631a10.181 10.181 0 0 1-1.685-.089c-.532-.089-1.064-.177-1.507-.266a4.673 4.673 0 0 1-1.33-.443c-.443-.177-.8-.443-1.241-.621a4.648 4.648 0 0 1-.975-.887 6.767 6.767 0 0 1-.709-.975 6.157 6.157 0 0 1-.443-1.153 5.854 5.854 0 0 1-.089-1.241v-.709h4.433v1.064c.089.089.089.266.177.355s.177.266.266.355a1.934 1.934 0 0 0 .443.355l.532.266c.177.089.443.177.621.266a2.455 2.455 0 0 0 .8.089 3.324 3.324 0 0 0 .975.089h7.18a4.684 4.684 0 0 0 1.153-.089c.355-.089.709-.089.975-.177a8.371 8.371 0 0 0 .8-.266 3.854 3.854 0 0 0 .621-.355c.177-.177.355-.266.532-.443a1.557 1.557 0 0 0 .355-.443c.089-.177.177-.266.177-.443s.089-.355.089-.532V34.82a1.938 1.938 0 0 1-.443.266c-.266.177-.621.266-.887.443-.355.089-.621.177-.975.266a4.451 4.451 0 0 1-1.064.177 5.056 5.056 0 0 1-1.153.089h-8.071a15.313 15.313 0 0 1-3.724-.443 8.05 8.05 0 0 1-2.748-1.418 5.147 5.147 0 0 1-1.685-2.394 13.361 13.361 0 0 1-.532-3.636zm31.032 6.916V15.491h4.256V35.8h-4.256zm10.019 0V7.6h4.256v28.2h-4.256zm27.929.8h-9.22a16.671 16.671 0 0 1-3.813-.443 6.886 6.886 0 0 1-2.749-1.507 6.361 6.361 0 0 1-1.773-2.483 9.951 9.951 0 0 1-.532-3.369v-4.968a7.809 7.809 0 0 1 .177-1.507 12.63 12.63 0 0 1 .443-1.419 5.653 5.653 0 0 1 .709-1.241 6.1 6.1 0 0 1 .978-1.149l1.33-1.064a13.339 13.339 0 0 1 1.6-.8 9.352 9.352 0 0 1 1.685-.443 13.094 13.094 0 0 1 1.862-.089h7.98a13.728 13.728 0 0 1 1.951.089 12.962 12.962 0 0 1 1.773.443 12.56 12.56 0 0 1 1.6.709 12.688 12.688 0 0 1 1.33.975 5.956 5.956 0 0 1 1.685 2.305 7.763 7.763 0 0 1 .621 2.837v3.813h-21.291v1.064a5.365 5.365 0 0 0 .355 2.128 3.246 3.246 0 0 0 .887 1.419 3.754 3.754 0 0 0 .621.443c.266.089.443.266.709.266a2.623 2.623 0 0 0 .887.177 4.317 4.317 0 0 0 1.064.089H123a8.931 8.931 0 0 0 1.685-.177 3.066 3.066 0 0 0 1.064-.621 1.556 1.556 0 0 0 .355-.443 1.937 1.937 0 0 0 .266-.443c.089-.177.089-.355.177-.532 0-.177.089-.355.089-.621v-.266h4.167v.266a6.66 6.66 0 0 1-.443 2.305 5.961 5.961 0 0 1-.532 1.064 7.753 7.753 0 0 1-.709.887 6.105 6.105 0 0 1-1.153.975 9.691 9.691 0 0 1-1.33.709c-.532.177-1.064.266-1.6.443a6.638 6.638 0 0 1-1.862.177zm3.192-13.122a3.779 3.779 0 0 0-1.064-2.483c-.177-.177-.443-.355-.621-.532-.266-.089-.443-.266-.709-.355s-.621-.177-.887-.266a3.325 3.325 0 0 0-.975-.089h-8.689a2.733 2.733 0 0 0-.887.089 2.818 2.818 0 0 0-.8.266 2.655 2.655 0 0 0-.709.355 3.856 3.856 0 0 0-.621.532c-.177.177-.355.443-.532.621-.089.266-.266.443-.355.709s-.089.443-.177.709c0 .177-.089.266-.089.443zm36.441-14.987h4.256V35.8H162.9c-.089-9.31-.089-18.708-.089-28.018zm-26.511 0h7.182c5.586 6.472 11.172 13.034 16.758 19.595v6.472l-19.772-22.52V35.8h-4.256V7.777zm36.264 7.714h4.256V35.8h-4.256z" class="cls-2" data-name="Path 19" transform="translate(-6.144 -.862)"/>
        <path id="Path_20" d="M37.418 16.5l10.729 20.393H32.453v-3.9h8.334L35.379 22.44l-7.625 14.453L22.7 36.8l10.728-20.3z" class="cls-3" data-name="Path 20" transform="translate(-2.573 -1.87)"/>
        <path id="Path_21" d="M12 35.9c4.877-9.31 10.108-18.885 14.9-28.2h5.32c-4.7 9.487-10.019 18.885-14.807 28.2z" class="cls-2" data-name="Path 21" transform="translate(-1.36 -.873)"/>
    </g>
</svg>
