<svg xmlns="http://www.w3.org/2000/svg" viewBox="0 0 405.128 89.499">
    <defs>
        <style>
            .cls-1,.cls-2{fill:#3d577c}.cls-2{fill-rule:evenodd}
        </style>
    </defs>
    <g id="Agilenix_logo_darkblue">
        <path id="Path_22" d="M.681 0h34.37v8.167H8.337v73.165h27.054V89.5H0V0z" class="cls-1" data-name="Path 22"/>
        <path id="Path_23" d="M252.011 0h-34.2v8.167h26.714v73.165H217.3V89.5h35.391V0z" class="cls-1" data-name="Path 23" transform="translate(152.436)"/>
        <path id="Path_24" d="M311.127 22.743l13.1 12.761 12.761-12.761h10.549l-18.204 17.866 21.1 21.1h-10.721l-15.654-15.655-15.824 15.654h-10.209l20.928-20.928-18.376-18.037zM54.2 47.075v-9.188c0-1.191.17-2.212.17-3.4a14.372 14.372 0 0 1 .851-2.893 9.018 9.018 0 0 1 1.361-2.552 11.715 11.715 0 0 1 1.872-2.212 12.078 12.078 0 0 1 2.382-1.7 14.72 14.72 0 0 1 2.893-1.191 18.073 18.073 0 0 1 3.233-.681 26.344 26.344 0 0 1 3.743-.17h18.886v7.142h-16.5a15.568 15.568 0 0 0-2.893.17 10.042 10.042 0 0 0-2.382.34 5.1 5.1 0 0 0-1.7.681 3.7 3.7 0 0 0-1.361.851 4.511 4.511 0 0 0-.851 1.021 5.094 5.094 0 0 0-.681 1.361c-.17.51-.34 1.191-.51 1.7-.34.34-.34 1.021-.34 1.872v7.827a7.012 7.012 0 0 0 .17 2.042c.17.681.34 1.191.51 1.7a3.7 3.7 0 0 0 .851 1.361 7.4 7.4 0 0 0 1.021 1.191 9.5 9.5 0 0 0 1.361.851 7.11 7.11 0 0 0 1.7.681 10.042 10.042 0 0 0 2.382.34 13.753 13.753 0 0 0 2.722.17h12.077a10.464 10.464 0 0 0 2.382-.17l2.042-.51a17.652 17.652 0 0 0 1.7-.681c.51-.34.851-.681 1.361-1.021.34-.34.681-.851 1.021-1.191.34-.51.51-.851.851-1.361l.51-1.531a6.38 6.38 0 0 0 .17-1.872V22.743h8V64.09a12.684 12.684 0 0 1-1.021 5.275 13.727 13.727 0 0 1-2.893 4.084 12.634 12.634 0 0 1-5.445 2.722 25.182 25.182 0 0 1-7.487.851H71.725a19.538 19.538 0 0 1-3.233-.17 97.29 97.29 0 0 1-2.893-.51 8.968 8.968 0 0 1-2.552-.851c-.851-.34-1.531-.851-2.382-1.191a8.918 8.918 0 0 1-1.872-1.7 12.987 12.987 0 0 1-1.361-1.872 11.815 11.815 0 0 1-.851-2.212 11.234 11.234 0 0 1-.17-2.382V64.77h8.508v2.042c.17.17.17.51.34.681s.34.51.51.681a3.712 3.712 0 0 0 .851.681l1.021.51c.34.17.851.34 1.191.51a4.711 4.711 0 0 0 1.531.17 6.38 6.38 0 0 0 1.872.17h13.783a8.989 8.989 0 0 0 2.212-.17c.681-.17 1.361-.17 1.872-.34a16.062 16.062 0 0 0 1.531-.51 7.4 7.4 0 0 0 1.191-.681c.34-.34.681-.51 1.021-.851a2.987 2.987 0 0 0 .681-.851c.17-.34.34-.51.34-.851s.17-.681.17-1.021v-5.1a3.719 3.719 0 0 1-.851.51c-.51.34-1.191.51-1.7.851-.681.17-1.191.34-1.872.51a8.541 8.541 0 0 1-2.042.34 9.7 9.7 0 0 1-2.212.17H70.875a29.385 29.385 0 0 1-7.146-.851 15.448 15.448 0 0 1-5.275-2.722 9.876 9.876 0 0 1-3.233-4.594 25.641 25.641 0 0 1-1.021-6.979zm59.552 13.272v-37.6h8.167v38.961h-8.167zm19.227 0V7.6h8.167v54.108h-8.167zm53.6 1.531h-17.7a31.993 31.993 0 0 1-7.316-.851 13.214 13.214 0 0 1-5.275-2.893 12.208 12.208 0 0 1-3.4-4.764 19.1 19.1 0 0 1-1.021-6.466v-9.528a14.986 14.986 0 0 1 .34-2.893 24.232 24.232 0 0 1 .851-2.722 10.848 10.848 0 0 1 1.361-2.382 11.714 11.714 0 0 1 1.872-2.212l2.552-2.042a25.6 25.6 0 0 1 3.063-1.531 17.947 17.947 0 0 1 3.233-.851 25.129 25.129 0 0 1 3.573-.17h15.314a26.344 26.344 0 0 1 3.743.17 24.876 24.876 0 0 1 3.4.851 24.1 24.1 0 0 1 3.063 1.361 24.343 24.343 0 0 1 2.552 1.872 11.429 11.429 0 0 1 3.233 4.424 14.9 14.9 0 0 1 1.193 5.449v7.316h-40.836v2.042a10.3 10.3 0 0 0 .681 4.084 6.229 6.229 0 0 0 1.7 2.722 7.2 7.2 0 0 0 1.191.851c.51.17.851.51 1.361.51a5.034 5.034 0 0 0 1.7.34 8.284 8.284 0 0 0 2.042.17h17.185a17.14 17.14 0 0 0 3.233-.34 5.884 5.884 0 0 0 2.042-1.191 2.988 2.988 0 0 0 .681-.851 3.721 3.721 0 0 0 .51-.851c.17-.34.17-.681.34-1.021 0-.34.17-.681.17-1.191v-.51h8v.51a12.781 12.781 0 0 1-.851 4.424 11.431 11.431 0 0 1-1.021 2.042 14.871 14.871 0 0 1-1.361 1.7 11.716 11.716 0 0 1-2.212 1.872 18.6 18.6 0 0 1-2.552 1.361c-1.021.34-2.042.51-3.063.851a12.739 12.739 0 0 1-3.573.34zM192.7 36.7a7.251 7.251 0 0 0-2.042-4.764c-.34-.34-.851-.681-1.191-1.021-.51-.17-.851-.51-1.361-.681s-1.191-.34-1.7-.51a6.38 6.38 0 0 0-1.872-.17H167.86a5.245 5.245 0 0 0-1.7.17 5.408 5.408 0 0 0-1.531.51 5.094 5.094 0 0 0-1.361.681 7.4 7.4 0 0 0-1.191 1.021c-.34.34-.681.851-1.021 1.191-.17.51-.51.851-.681 1.361s-.17.851-.34 1.361c0 .34-.17.51-.17.851zm69.934-28.76h8.166v53.768h-8c-.17-17.866-.17-35.9-.17-53.767zm-50.875 0h13.782c10.719 12.421 21.439 25.012 32.158 37.6v12.424l-37.943-43.218v46.962h-8.167V7.94zm69.591 14.8h8.167v38.968h-8.167z" class="cls-1" data-name="Path 24" transform="translate(38.021 5.331)"/>
        <path id="Path_25" d="M50.945 16.5l20.588 39.135H41.417v-7.487h15.994L47.031 27.9 32.4 55.635l-9.7-.17L43.288 16.5z" class="cls-2" data-name="Path 25" transform="translate(15.924 11.575)"/>
        <path id="Path_26" d="M12 61.808C21.358 43.942 31.4 25.566 40.585 7.7h10.209c-9.018 18.206-19.227 36.242-28.415 54.108z" class="cls-1" data-name="Path 26" transform="translate(8.418 5.402)"/>
    </g>
</svg>
