<svg xmlns="http://www.w3.org/2000/svg" viewBox="0 0 405.128 89.41">
    <defs>
        <style>
            .cls-1,.cls-3{fill:#3d577c}.cls-2{fill:#189af1}.cls-3{fill-rule:evenodd}
        </style>
    </defs>
    <g id="Agilenix_logo_darkblue-blue">
        <path id="Path_3" d="M.627 0h34.322v8.15H8.306v73.189h27.113v8.071H0V0z" class="cls-1" data-name="Path 3"/>
        <path id="Path_4" d="M506.614 0h-34.322v8.15h26.643v73.189H471.9v8.071h35.341V0z" class="cls-1" data-name="Path 4" transform="translate(-102.114)"/>
        <path id="Path_5" d="M374.568 31.645l13.008 12.695 12.773-12.695h10.5l-18.18 17.945 21.079 21H403.17L387.5 54.919l-15.831 15.672H361.4l20.922-21-18.18-17.945h10.422zM117.7 55.937v-9.246a21.675 21.675 0 0 1 .235-3.291 12.826 12.826 0 0 1 .784-2.978 10.1 10.1 0 0 1 1.332-2.586 12.225 12.225 0 0 1 1.8-2.194 10.089 10.089 0 0 1 2.351-1.724 23.494 23.494 0 0 1 2.821-1.254 21.26 21.26 0 0 1 3.213-.705 28.153 28.153 0 0 1 3.683-.235h18.807v7.131H136.35c-1.019 0-2.037.078-2.9.157a18.354 18.354 0 0 0-2.351.392 9.673 9.673 0 0 0-1.8.627 9.993 9.993 0 0 0-1.332.784 4.124 4.124 0 0 0-.94 1.1 4.356 4.356 0 0 0-.705 1.332 6.226 6.226 0 0 0-.47 1.724 16.69 16.69 0 0 0-.157 2.116V55a16.69 16.69 0 0 0 .157 2.116 6.777 6.777 0 0 0 .47 1.8 8.164 8.164 0 0 0 .784 1.411 6.767 6.767 0 0 0 1.019 1.1 6.147 6.147 0 0 0 1.411.862 12.182 12.182 0 0 0 1.8.627 17.052 17.052 0 0 0 2.272.392 27.358 27.358 0 0 0 2.743.157h12.068a23.731 23.731 0 0 0 2.429-.157 8.586 8.586 0 0 0 2.037-.47 5.224 5.224 0 0 0 1.646-.705 5.977 5.977 0 0 0 1.332-1.019 5.116 5.116 0 0 0 1.019-1.254 12.679 12.679 0 0 0 .784-1.411 5.97 5.97 0 0 0 .47-1.567 13 13 0 0 0 .155-1.882V31.645h7.914V73.02a14.058 14.058 0 0 1-.94 5.329 11.435 11.435 0 0 1-2.9 4.075 14.2 14.2 0 0 1-5.407 2.821 26.645 26.645 0 0 1-7.523.94h-14.652c-1.1 0-2.116-.078-3.134-.157a17.249 17.249 0 0 1-2.9-.549 12.6 12.6 0 0 1-2.586-.94 21.108 21.108 0 0 1-2.272-1.254 13.438 13.438 0 0 1-1.881-1.646 11.261 11.261 0 0 1-1.411-1.959 10.646 10.646 0 0 1-.862-2.194 12.113 12.113 0 0 1-.313-2.429v-1.41h8.541v1.411a2.17 2.17 0 0 0 .078.705c.078.235.157.392.235.627a2.113 2.113 0 0 0 .549.627 3.068 3.068 0 0 0 .784.627 4.222 4.222 0 0 0 1.019.549 5.873 5.873 0 0 0 1.254.392 9.4 9.4 0 0 0 1.567.235 13.888 13.888 0 0 0 1.881.078H149.2c.784 0 1.567-.078 2.194-.078a11.307 11.307 0 0 0 1.881-.392 9.218 9.218 0 0 0 1.567-.549c.47-.235.862-.47 1.254-.705a5.119 5.119 0 0 0 .94-.862l.705-.94a4.793 4.793 0 0 0 .392-.94 4.586 4.586 0 0 0 .157-1.019v-5.095c-.235.157-.549.313-.784.47a12.5 12.5 0 0 1-1.8.784 17.019 17.019 0 0 1-1.881.549 18.3 18.3 0 0 1-2.037.313 20.534 20.534 0 0 1-2.194.078h-15.2a24.569 24.569 0 0 1-7.131-.94 15.187 15.187 0 0 1-5.25-2.743 12.734 12.734 0 0 1-3.291-4.7 16.265 16.265 0 0 1-1.019-6.191zm59.555 13.321V31.645h8.071v39.1h-8.071zm19.277 0V16.6h8.068v54.069h-8.071zm53.521 1.489h-17.71a24.751 24.751 0 0 1-7.209-.94 13.85 13.85 0 0 1-5.329-2.821 12.162 12.162 0 0 1-3.291-4.78 18.54 18.54 0 0 1-1.1-6.5v-9.485a16.446 16.446 0 0 1 .235-2.821 10.6 10.6 0 0 1 .862-2.664 14.645 14.645 0 0 1 1.332-2.429 12.708 12.708 0 0 1 1.959-2.194 16.455 16.455 0 0 1 2.586-2.037 17.371 17.371 0 0 1 2.978-1.411 14.488 14.488 0 0 1 3.291-.862 18.151 18.151 0 0 1 3.6-.313h15.28a29.375 29.375 0 0 1 3.761.235 23.44 23.44 0 0 1 3.37.784 17.164 17.164 0 0 1 2.978 1.332 12.337 12.337 0 0 1 2.508 1.881 14.983 14.983 0 0 1 3.291 4.467 13.986 13.986 0 0 1 1.1 5.485v7.209H225.6v.078h-1.959v2.116a12.719 12.719 0 0 0 .627 4.075A6.293 6.293 0 0 0 226 61.814a9.508 9.508 0 0 0 1.1.784 10.465 10.465 0 0 0 1.41.549 11.12 11.12 0 0 0 1.724.392 16.4 16.4 0 0 0 2.037.078H249.5a12.867 12.867 0 0 0 3.213-.392 5.415 5.415 0 0 0 2.116-1.1 3.368 3.368 0 0 0 .705-.784 1.868 1.868 0 0 0 .47-.862 4.414 4.414 0 0 0 .313-.94 5.173 5.173 0 0 0 .078-1.1V57.9h8.071v.549a11.5 11.5 0 0 1-.784 4.388 9.016 9.016 0 0 1-.94 1.959 9.731 9.731 0 0 1-1.332 1.8 16.407 16.407 0 0 1-2.194 1.881 14.1 14.1 0 0 1-2.664 1.332 12.827 12.827 0 0 1-2.978.784c-1.175.078-2.272.157-3.526.157zm6.191-25.076a7.942 7.942 0 0 0-2.116-4.78 4.439 4.439 0 0 0-1.175-.94 3.978 3.978 0 0 0-1.41-.705 11.073 11.073 0 0 0-1.724-.47 14.179 14.179 0 0 0-1.959-.157h-16.615a11.737 11.737 0 0 0-1.724.157 11.455 11.455 0 0 0-1.567.392 4.356 4.356 0 0 0-1.332.705 12.347 12.347 0 0 0-1.175.94 6.18 6.18 0 0 0-.94 1.175L223.8 43.4a6.618 6.618 0 0 0-.392 1.332 2.665 2.665 0 0 0-.078.784h32.912zm69.82-28.837h8.15v53.835h-8.071q-.118-26.917-.078-53.834zm-50.856 0H289l32.2 37.614v12.3l-37.927-43.1v47.021h-8.071V16.835zm69.663 14.732h8.071v39.1h-8.071z" class="cls-2" data-name="Path 5" transform="translate(-25.469 -3.592)"/>
        <path id="Path_6" d="M77.488 35.8l20.531 39.1H67.928v-7.442h16.064L73.57 47.319 59 74.9l-9.8-.078L69.731 35.8z" class="cls-3" data-name="Path 6" transform="translate(-10.646 -7.747)"/>
        <path id="Path_7" d="M26.2 70.748c9.247-17.866 19.355-36.2 28.6-54.148h10.189C55.9 34.7 45.79 52.8 36.544 70.748z" class="cls-2" data-name="Path 7" transform="translate(-5.669 -3.592)"/>
    </g>
</svg>
