<svg xmlns="http://www.w3.org/2000/svg" id="Agilenix_logo_darkblue-blue" viewBox="0 0 146 32.222">
    <defs>
        <style>
            .cls-1,.cls-3{fill:#fff}.cls-2{fill:#189af1}.cls-3{fill-rule:evenodd}
        </style>
    </defs>
    <path id="Path_3" d="M.226 0h12.369v2.937h-9.6v26.376h9.771v2.909H0V0z" class="cls-1" data-name="Path 3"/>
    <path id="Path_4" d="M484.41 0h-12.369v2.937h9.6v26.376H471.9v2.909h12.736V0z" class="cls-1" data-name="Path 4" transform="translate(-338.636)"/>
    <path id="Path_5" d="M210.27 22.022l4.688 4.575 4.6-4.575h3.784l-6.552 6.467 7.6 7.568h-3.812l-5.648-5.648-5.7 5.648h-3.7l7.54-7.568-6.552-6.467zm-92.57 8.754v-3.332a7.812 7.812 0 0 1 .085-1.186 4.622 4.622 0 0 1 .282-1.073 3.639 3.639 0 0 1 .48-.932 4.406 4.406 0 0 1 .65-.791 3.636 3.636 0 0 1 .847-.621 8.466 8.466 0 0 1 1.017-.452 7.661 7.661 0 0 1 1.158-.254 10.146 10.146 0 0 1 1.327-.085h6.778v2.57h-5.9c-.367 0-.734.028-1.045.056a6.613 6.613 0 0 0-.847.141 3.486 3.486 0 0 0-.65.226 3.6 3.6 0 0 0-.48.282 1.486 1.486 0 0 0-.339.4 1.569 1.569 0 0 0-.254.48 2.243 2.243 0 0 0-.169.621 6.017 6.017 0 0 0-.056.762v2.852a6.017 6.017 0 0 0 .056.762 2.442 2.442 0 0 0 .169.65 2.942 2.942 0 0 0 .282.508 2.439 2.439 0 0 0 .367.4 2.215 2.215 0 0 0 .508.311 4.391 4.391 0 0 0 .649.226 6.146 6.146 0 0 0 .819.141 9.86 9.86 0 0 0 .988.056h4.349a8.553 8.553 0 0 0 .875-.056 3.094 3.094 0 0 0 .734-.169 1.883 1.883 0 0 0 .593-.254 2.154 2.154 0 0 0 .48-.367 1.843 1.843 0 0 0 .367-.452 4.569 4.569 0 0 0 .282-.508 2.151 2.151 0 0 0 .169-.565 4.683 4.683 0 0 0 .057-.678v-8.423h2.852v14.911a5.066 5.066 0 0 1-.339 1.92 4.121 4.121 0 0 1-1.045 1.468 5.116 5.116 0 0 1-1.949 1.017 9.6 9.6 0 0 1-2.711.339h-5.281c-.4 0-.762-.028-1.13-.056a6.215 6.215 0 0 1-1.045-.2 4.539 4.539 0 0 1-.932-.339 7.609 7.609 0 0 1-.819-.452 4.843 4.843 0 0 1-.678-.593 4.06 4.06 0 0 1-.508-.706 3.837 3.837 0 0 1-.311-.791 4.366 4.366 0 0 1-.113-.875v-.508h3.081v.508a.782.782 0 0 0 .028.254c.028.085.056.141.085.226a.761.761 0 0 0 .2.226 1.106 1.106 0 0 0 .282.226 1.521 1.521 0 0 0 .367.2 2.116 2.116 0 0 0 .452.141 3.388 3.388 0 0 0 .565.085 5 5 0 0 0 .678.028h5c.282 0 .565-.028.791-.028a4.075 4.075 0 0 0 .678-.141 3.322 3.322 0 0 0 .565-.2c.169-.085.311-.169.452-.254a1.844 1.844 0 0 0 .339-.311l.254-.339a1.727 1.727 0 0 0 .141-.339 1.652 1.652 0 0 0 .057-.367v-1.834c-.085.056-.2.113-.282.169a4.506 4.506 0 0 1-.65.282 6.133 6.133 0 0 1-.678.2 6.6 6.6 0 0 1-.734.113 7.4 7.4 0 0 1-.791.028h-5.479a8.854 8.854 0 0 1-2.57-.339 5.473 5.473 0 0 1-1.892-.988 4.589 4.589 0 0 1-1.186-1.694 5.861 5.861 0 0 1-.367-2.231zm21.462 4.8V22.022h2.909v14.092h-2.909zm6.947 0V16.6h2.909v19.485h-2.909zm19.288.537h-6.382a8.92 8.92 0 0 1-2.6-.339 4.992 4.992 0 0 1-1.92-1.017 4.383 4.383 0 0 1-1.186-1.723 6.681 6.681 0 0 1-.4-2.344v-3.415a5.927 5.927 0 0 1 .091-1.017 3.818 3.818 0 0 1 .311-.96 5.279 5.279 0 0 1 .48-.875 4.579 4.579 0 0 1 .706-.791 5.932 5.932 0 0 1 .932-.734 6.262 6.262 0 0 1 1.073-.508 5.222 5.222 0 0 1 1.186-.311 6.541 6.541 0 0 1 1.3-.113h5.507a10.586 10.586 0 0 1 1.355.085 8.448 8.448 0 0 1 1.214.282 6.185 6.185 0 0 1 1.073.48 4.446 4.446 0 0 1 .9.678 5.4 5.4 0 0 1 1.186 1.61 5.04 5.04 0 0 1 .4 1.977v2.6h-14.037v.022h-.706v.762a4.583 4.583 0 0 0 .226 1.468 2.268 2.268 0 0 0 .621.96 3.427 3.427 0 0 0 .4.282 3.773 3.773 0 0 0 .508.2 4.008 4.008 0 0 0 .621.141 5.909 5.909 0 0 0 .734.028h6.21a4.637 4.637 0 0 0 1.158-.141 1.951 1.951 0 0 0 .762-.4 1.213 1.213 0 0 0 .254-.282.673.673 0 0 0 .169-.311 1.593 1.593 0 0 0 .113-.339 1.866 1.866 0 0 0 .028-.4v-.2h2.909v.2a4.144 4.144 0 0 1-.282 1.581 3.251 3.251 0 0 1-.339.706 3.506 3.506 0 0 1-.48.65 5.911 5.911 0 0 1-.791.678 5.084 5.084 0 0 1-.96.48 4.623 4.623 0 0 1-1.073.282c-.424.028-.819.056-1.271.056zm2.231-9.037a2.862 2.862 0 0 0-.762-1.723 1.6 1.6 0 0 0-.424-.339 1.433 1.433 0 0 0-.508-.254 3.991 3.991 0 0 0-.621-.169 5.11 5.11 0 0 0-.706-.056h-5.987a4.23 4.23 0 0 0-.621.056 4.129 4.129 0 0 0-.565.141 1.57 1.57 0 0 0-.48.254 4.447 4.447 0 0 0-.424.339 2.226 2.226 0 0 0-.339.424l-.254.508a2.386 2.386 0 0 0-.141.48.961.961 0 0 0-.028.282h11.861zm25.162-10.391h2.937v19.4h-2.909q-.042-9.7-.028-19.4zm-18.328 0h4.97l11.607 13.555v4.434l-13.668-15.532v16.943h-2.909zm25.105 5.309h2.909v14.091h-2.909z" class="cls-2" data-name="Path 5" transform="translate(-84.462 -11.912)"/>
    <path id="Path_6" d="M59.395 35.8l7.4 14.092H55.949v-2.683h5.789l-3.756-7.258-5.253 9.94-3.53-.028L56.6 35.8z" class="cls-3" data-name="Path 6" transform="translate(-35.306 -25.69)"/>
    <path id="Path_7" d="M26.2 36.114c3.332-6.439 6.975-13.047 10.308-19.514h3.671C36.9 23.123 33.26 29.647 29.928 36.114z" class="cls-2" data-name="Path 7" transform="translate(-18.801 -11.912)"/>
</svg>
